<svg width="500" height="300" viewBox="0 0 500 300" fill="none" xmlns="http://www.w3.org/2000/svg">
<rect x="10" y="10" width="480" height="280" fill="#798188" stroke="#404040" stroke-width="20"/>
<path d="M132.375 110.969H100.453V199H82.8047V110.969H51.1641V96.625H132.375V110.969ZM225.609 150.484C225.609 160.516 223.875 169.328 220.406 176.922C216.938 184.469 211.969 190.281 205.5 194.359C199.078 198.391 191.672 200.406 183.281 200.406C174.984 200.406 167.578 198.391 161.062 194.359C154.594 190.281 149.578 184.492 146.016 176.992C142.5 169.492 140.719 160.844 140.672 151.047V145.281C140.672 135.297 142.43 126.484 145.945 118.844C149.508 111.203 154.5 105.367 160.922 101.336C167.391 97.2578 174.797 95.2188 183.141 95.2188C191.484 95.2188 198.867 97.2344 205.289 101.266C211.758 105.25 216.75 111.016 220.266 118.562C223.781 126.062 225.562 134.805 225.609 144.789V150.484ZM207.82 145.141C207.82 133.797 205.664 125.102 201.352 119.055C197.086 113.008 191.016 109.984 183.141 109.984C175.453 109.984 169.43 113.008 165.07 119.055C160.758 125.055 158.555 133.562 158.461 144.578V150.484C158.461 161.734 160.641 170.43 165 176.57C169.406 182.711 175.5 185.781 183.281 185.781C191.156 185.781 197.203 182.781 201.422 176.781C205.688 170.781 207.82 162.016 207.82 150.484V145.141ZM279.188 199V96.625H309.422C318.469 96.625 326.484 98.6406 333.469 102.672C340.5 106.703 345.938 112.422 349.781 119.828C353.625 127.234 355.547 135.719 355.547 145.281V150.414C355.547 160.117 353.602 168.648 349.711 176.008C345.867 183.367 340.359 189.039 333.188 193.023C326.062 197.008 317.883 199 308.648 199H279.188ZM296.977 110.969V184.797H308.578C317.906 184.797 325.055 181.891 330.023 176.078C335.039 170.219 337.594 161.828 337.688 150.906V145.211C337.688 134.102 335.273 125.617 330.445 119.758C325.617 113.898 318.609 110.969 309.422 110.969H296.977ZM454.969 150.484C454.969 160.516 453.234 169.328 449.766 176.922C446.297 184.469 441.328 190.281 434.859 194.359C428.438 198.391 421.031 200.406 412.641 200.406C404.344 200.406 396.938 198.391 390.422 194.359C383.953 190.281 378.938 184.492 375.375 176.992C371.859 169.492 370.078 160.844 370.031 151.047V145.281C370.031 135.297 371.789 126.484 375.305 118.844C378.867 111.203 383.859 105.367 390.281 101.336C396.75 97.2578 404.156 95.2188 412.5 95.2188C420.844 95.2188 428.227 97.2344 434.648 101.266C441.117 105.25 446.109 111.016 449.625 118.562C453.141 126.062 454.922 134.805 454.969 144.789V150.484ZM437.18 145.141C437.18 133.797 435.023 125.102 430.711 119.055C426.445 113.008 420.375 109.984 412.5 109.984C404.812 109.984 398.789 113.008 394.43 119.055C390.117 125.055 387.914 133.562 387.82 144.578V150.484C387.82 161.734 390 170.43 394.359 176.57C398.766 182.711 404.859 185.781 412.641 185.781C420.516 185.781 426.562 182.781 430.781 176.781C435.047 170.781 437.18 162.016 437.18 150.484V145.141Z" fill="#404040"/>
</svg>
